<svg width="136" height="163" viewBox="0 0 136 163" fill="none" xmlns="http://www.w3.org/2000/svg">
<path d="M48.7548 146.365V95.8218H49.4147L76.0981 150.051L74.9671 156.145L74.3087 159.692H77.9167H122.648H129.14L124.933 154.748L114.768 142.803L80.2974 73.8618L112.06 16.6162L119.672 8.60792L124.489 3.54102H117.498H77.9167H74.1025L75.0011 7.24782L76.3445 12.7892L50.8885 59.682H48.7548V15.7353L53.7777 8.20587L56.8896 3.54102H51.282H11.4765H6.10328L8.92261 8.11513L13.5833 15.6767V146.365L8.46178 155.186L5.8452 159.692H11.0562H51.282H56.493L53.8764 155.186L48.7548 146.365Z" fill="black" stroke="white" stroke-width="6"/>
</svg>
